
        <svg xmlns="http://www.w3.org/2000/svg" xmlns:xlink="http://www.w3.org/1999/xlink" version="1.1" width="3187.5" 
        height="1125.0503365551504" viewBox="0 0 3187.5 1125.0503365551504">
			<rect fill="#f7e8d3" width="3187.5" height="1125.0503365551504"/>
			<g transform="scale(9.375) translate(10, 10)">
				<defs id="SvgjsDefs4466"></defs><g id="SvgjsG4467" featureKey="symbolFeature-0" transform="matrix(0.9092455409702966,0,0,0.9092455409702966,-40.924165625424024,-40.92132145831131)" fill="#000000"><path xmlns="http://www.w3.org/2000/svg" d="M149.069,80.073c-0.354-0.873-0.741-1.737-1.143-2.591c7.788-14.021,9.177-24.166,3.966-29.378  c-5.21-5.21-15.354-3.823-29.374,3.964c-0.856-0.402-1.72-0.786-2.596-1.141c-3.159-1.281-6.461-2.259-9.813-2.908  c-6.644-1.286-13.578-1.285-20.218,0c-3.353,0.649-6.654,1.627-9.813,2.909c-3.219,1.305-6.318,2.937-9.214,4.848  c-2.97,1.961-5.764,4.243-8.304,6.782c-2.537,2.539-4.819,5.332-6.781,8.303c-1.913,2.898-3.544,5.998-4.848,9.213  c-1.28,3.157-2.259,6.458-2.909,9.813c-0.643,3.321-0.969,6.723-0.969,10.109s0.326,6.788,0.969,10.109  c0.65,3.355,1.629,6.656,2.909,9.813c0.355,0.875,0.738,1.739,1.141,2.595c-7.787,14.018-9.176,24.162-3.964,29.374  c2.074,2.074,4.927,3.106,8.494,3.106c5.746-0.001,13.347-2.678,22.525-7.99c0.006-0.003,0.011-0.007,0.017-0.01  c0.017-0.01,0.034-0.02,0.05-0.03c11.793-6.835,25.189-17.5,37.731-30.043c10.547-10.546,19.758-21.694,26.49-31.989  c0.709,2.049,1.278,4.154,1.69,6.283c0.558,2.886,0.841,5.84,0.841,8.78s-0.283,5.895-0.841,8.779  c-0.563,2.91-1.412,5.774-2.522,8.512c-1.13,2.786-2.544,5.474-4.203,7.987c-1.701,2.577-3.684,5.003-5.892,7.211  c-2.202,2.204-4.628,4.186-7.21,5.89c-2.511,1.659-5.197,3.072-7.986,4.203c-2.739,1.11-5.604,1.96-8.513,2.522  c-3.139,0.607-6.348,0.879-9.56,0.836c-1.909-0.073-3.526,1.506-3.56,3.438c-0.034,1.933,1.505,3.526,3.438,3.56  c0.3,0.006,0.601,0.008,0.901,0.008c3.387,0,6.788-0.326,10.109-0.969c3.354-0.649,6.655-1.628,9.813-2.908  c3.217-1.305,6.317-2.936,9.214-4.849c2.975-1.964,5.768-4.246,8.303-6.782c2.54-2.54,4.822-5.333,6.783-8.304  c1.914-2.899,3.545-5.999,4.848-9.213c1.28-3.156,2.259-6.457,2.909-9.813c0.643-3.322,0.968-6.724,0.968-10.108  s-0.325-6.786-0.968-10.109C151.328,86.532,150.349,83.231,149.069,80.073z M53.058,146.939c-1.889-1.889-1.448-7.831,3.136-17.211  c1.867,2.744,3.998,5.339,6.367,7.707c2.364,2.364,4.958,4.496,7.708,6.367C60.888,148.386,54.948,148.828,53.058,146.939z   M111.976,111.972c-11.55,11.55-23.787,21.412-34.672,27.974c-0.877-0.499-1.744-1.017-2.582-1.571  c-2.581-1.704-5.007-3.687-7.21-5.89c-2.208-2.208-4.189-4.635-5.891-7.21c-1.659-2.515-3.073-5.202-4.203-7.988  c-1.11-2.737-1.959-5.602-2.522-8.512c-0.559-2.884-0.842-5.838-0.842-8.779s0.283-5.896,0.842-8.779  c0.563-2.91,1.412-5.774,2.522-8.512c1.131-2.788,2.545-5.475,4.203-7.987c1.702-2.579,3.685-5.005,5.89-7.21  c2.207-2.206,4.633-4.188,7.211-5.89c2.51-1.657,5.197-3.072,7.987-4.203c2.74-1.111,5.604-1.96,8.513-2.523  c5.768-1.116,11.79-1.117,17.558,0c2.908,0.563,5.772,1.411,8.513,2.522c2.791,1.132,5.478,2.546,7.987,4.204  c1.938,1.279,3.801,2.725,5.535,4.295c1.433,1.297,3.646,1.188,4.943-0.244c1.298-1.433,1.188-3.646-0.244-4.944  c-1.816-1.646-3.76-3.165-5.778-4.537c9.379-4.583,15.317-5.023,17.207-3.135c2.227,2.227,1.237,10.068-5.993,22.563  C134.412,86.914,124.123,99.825,111.976,111.972z"></path></g><g id="SvgjsG4468" featureKey="vMvB0T-0" transform="matrix(2.9559560918558305,0,0,2.9559560918558305,115.50694573962724,0.6730713847880274)" fill="#000000"><path d="M12.28 19.22 q-0.68 0.96 -2.12 0.96 q-0.82 0 -1.23 -0.42 t-0.71 -1.42 l-0.76 -2.34 q-0.3 -0.94 -0.72 -1.34 t-1.14 -0.4 q-0.24 0 -0.88 0.04 l0 5.7 q-0.62 0.12 -1.6 0.12 t-1.6 -0.12 l0 -13.66 q0.62 -0.12 1.6 -0.12 t1.6 0.12 l0 5.28 l0.52 -0.02 q0.36 0 0.52 -0.13 t0.38 -0.55 l1.9 -3.58 q0.3 -0.62 0.64 -0.87 t1.06 -0.25 q0.8 0 1.86 0.1 l0.18 0.22 l-2.44 4.6 q-0.46 0.92 -1.12 1.46 q0.94 0.2 1.41 0.76 t0.79 1.5 l0.82 2.48 q0.16 0.46 0.24 0.68 t0.4 0.74 q0.14 0.2 0.4 0.46 z M17.259999999999998 17.14 q-0.54 0 -0.8 -0.02 l-0.86 2.9 q-0.48 0.12 -1.34 0.12 q-0.96 0 -1.56 -0.22 l-0.1 -0.16 l4.4 -13.42 q0.78 -0.12 1.82 -0.12 q1.18 0 1.88 0.14 l4.32 13.44 q-0.7 0.38 -1.58 0.38 q-1.04 0 -1.46 -0.36 t-0.72 -1.38 l-0.38 -1.32 q-0.26 0.02 -0.78 0.02 l-2.84 0 z M17.2 14.620000000000001 l0.8 -0.02 l1.46 0 q0.1 0 0.35 0.01 t0.37 0.01 l-0.34 -1.24 q-0.48 -1.68 -1.1 -4.12 l-0.12 0 q-0.16 0.86 -0.96 3.82 z M36.5 10.56 q0 0.66 -0.2 1.25 t-0.53 1.06 t-0.78 0.82 t-0.93 0.53 q1.04 0.38 1.54 1.84 l0.6 1.7 q0.34 1 1 1.48 q-0.3 0.4 -0.9 0.67 t-1.32 0.27 t-1.12 -0.41 t-0.74 -1.43 l-0.72 -2.1 q-0.22 -0.6 -0.59 -0.92 t-1.11 -0.32 l-0.82 0 l0 5 q-0.64 0.12 -1.6 0.12 t-1.58 -0.12 l0 -13.56 l0.14 -0.14 q1.74 -0.04 2.93 -0.06 t1.87 -0.02 q1.1 0 2 0.27 t1.53 0.81 t0.98 1.36 t0.35 1.9 z M29.88 8.62 l0 3.92 q0.9 0 1.54 -0.03 t1.03 -0.24 t0.59 -0.59 t0.2 -1.1 q0 -1.94 -1.88 -1.94 l-0.83 0 t-0.65 -0.02 z M49.36000000000001 6.34 l0 8.62 q0 2.56 -1.4 3.95 t-4 1.39 t-4.01 -1.39 t-1.41 -3.95 l0 -8.62 l0.14 -0.14 l1.18 0 q1.9 0 1.9 2.04 l0 6.76 q0 1.4 0.5 2.08 t1.7 0.68 t1.7 -0.68 t0.5 -2.08 l0 -8.66 q0.62 -0.12 1.6 -0.12 q0.96 0 1.6 0.12 z M59.7 11.64 l-0.02 -1.48 l0 -3.82 q0.62 -0.12 1.61 -0.12 t1.59 0.12 l0 13.66 q-0.64 0.12 -1.6 0.12 t-1.6 -0.12 l0 -4.24 l0.02 -1.48 l-1 0.02 l-2.32 0 l-1 -0.02 l0.02 1.48 l0 4.24 q-0.62 0.12 -1.6 0.12 t-1.6 -0.12 l0 -13.66 q0.62 -0.12 1.6 -0.12 t1.6 0.12 l0 3.82 l-0.02 1.48 l1 -0.02 l2.32 0 z M65.96000000000001 20 l0 -13.66 q0.62 -0.12 1.6 -0.12 t1.62 0.12 l0 13.66 q-0.64 0.12 -1.62 0.12 t-1.6 -0.12 z"></path></g><g id="SvgjsG4469" featureKey="sloganFeature-0" transform="matrix(0.7099499604494791,0,0,0.7099499604494791,119.80121453918176,67.26566338407162)" fill="#000000"><path d="M0.28 7.359999999999999 l0 -1.72 l11.66 0 l0 1.72 l-4.86 0 l0 12.64 l-1.94 0 l0 -12.64 l-4.86 0 z M26.532000000000004 11.58 l0 -5.94 l1.94 0 l0 14.36 l-1.94 0 l0 -6.7 l-7.5 0 l0 6.7 l-1.94 0 l0 -14.36 l1.94 0 l0 5.94 l7.5 0 z M45.644 18.28 l0 1.72 l-10.6 0 l0 -14.36 l10.46 0 l0 1.72 l-8.52 0 l0 4.4 l7.86 0 l0 1.72 l-7.86 0 l0 4.8 l8.66 0 z M68.30799999999999 8.1 l-3.32 11.9 l-2.04 0 l-3.74 -14.36 l2.1 0 l2.68 11.68 l0.04 0 l3.22 -11.68 l2.12 0 l3.22 11.68 l0.04 0 l2.68 -11.68 l2.14 0 l-3.78 14.36 l-2.04 0 l-3.28 -11.9 l-0.04 0 z M90.63999999999999 15.82 l-5.76 0 l-1.5 4.18 l-2 0 l5.4 -14.36 l2.2 0 l5.2 14.36 l-2.12 0 z M85.47999999999999 14.1 l4.46 0 l-2.12 -6.32 l-0.04 0 z M105.41199999999999 14.219999999999999 l0 5.78 l-1.94 0 l0 -5.78 l-5.42 -8.58 l2.26 0 l4.12 6.9 l4.12 -6.9 l2.28 0 z M136.11599999999999 12.82 c0 -3.38 -1.88 -5.84 -5 -5.84 s-5 2.46 -5 5.84 s1.88 5.84 5 5.84 s5 -2.46 5 -5.84 z M138.11599999999999 12.82 c0 3.1 -1.64 7.56 -7 7.56 s-7 -4.46 -7 -7.56 s1.64 -7.56 7 -7.56 s7 4.46 7 7.56 z M145.88799999999998 13.48 l0 6.52 l-1.94 0 l0 -14.36 l9.94 0 l0 1.72 l-8 0 l0 4.4 l7.04 0 l0 1.72 l-7.04 0 z M181.89199999999997 20 l-1.88 0 l0 -8.48 c0 -0.42 0.04 -2.24 0.04 -3.58 l-0.04 0 l-4.04 12.06 l-1.92 0 l-4.04 -12.04 l-0.04 0 c0 1.32 0.04 3.14 0.04 3.56 l0 8.48 l-1.88 0 l0 -14.36 l2.78 0 l4.1 12.14 l0.04 0 l4.08 -12.14 l2.76 0 l0 14.36 z M190.42399999999995 5.640000000000001 l0 14.36 l-1.94 0 l0 -14.36 l1.94 0 z M206.59599999999995 17.240000000000002 l0 -11.6 l1.88 0 l0 14.36 l-2.18 0 l-7.3 -11.6 l-0.04 0 l0 11.6 l-1.88 0 l0 -14.36 l2.3 0 l7.18 11.6 l0.04 0 z M225.64799999999994 18.28 l0 1.72 l-10.6 0 l0 -14.36 l10.46 0 l0 1.72 l-8.52 0 l0 4.4 l7.86 0 l0 1.72 l-7.86 0 l0 4.8 l8.66 0 z"></path></g>
			</g>
		</svg>
	