<svg xmlns="http://www.w3.org/2000/svg" width="1125.05" height="1125.05" viewBox="0 0 1125.05 1125.05">
  <rect x="0" y="0" width="1125.05" height="1125.05" fill="#fff" rx="150"/>
  <path xmlns="http://www.w3.org/2000/svg" d="M980.784 392.675a443 443 0 0 0-9.743-22.086c66.387-119.518 78.227-205.996 33.807-250.424-44.411-44.412-130.88-32.588-250.39 33.79a452 452 0 0 0-22.13-9.726 452 452 0 0 0-83.647-24.789 456 456 0 0 0-172.343 0 449.64 449.64 0 0 0-232.975 123.934 455 455 0 0 0-57.803 70.776 450.1 450.1 0 0 0-66.122 162.182c-5.482 28.309-8.26 57.308-8.26 86.171s2.778 57.863 8.26 86.172a452 452 0 0 0 24.796 83.648c3.027 7.459 6.291 14.824 9.727 22.12-66.378 119.493-78.219 205.962-33.79 250.39 17.679 17.68 41.998 26.477 72.404 26.477 48.98-.009 113.773-22.828 192.008-68.109l.145-.085.426-.256c100.527-58.263 214.717-149.173 321.628-256.093 89.905-89.896 168.421-184.924 225.806-272.681a392 392 0 0 1 14.406 53.558c4.757 24.6 7.17 49.781 7.17 74.842s-2.413 50.25-7.17 74.834a392 392 0 0 1-21.498 72.559 389.6 389.6 0 0 1-86.052 129.55 392 392 0 0 1-61.46 50.208 388.7 388.7 0 0 1-140.64 57.326 400.6 400.6 0 0 1-81.492 7.126c-16.273-.622-30.056 12.837-30.346 29.306a29.835 29.835 0 0 0 29.306 30.346q3.836.069 7.68.069a451.6 451.6 0 0 0 169.82-33.049 449 449 0 0 0 78.542-41.334 454.3 454.3 0 0 0 70.777-57.81 454.3 454.3 0 0 0 57.82-70.786 449.2 449.2 0 0 0 66.122-162.182 454.3 454.3 0 0 0 0-172.334 452 452 0 0 0-24.789-83.64m-818.419 569.98c-16.102-16.101-12.343-66.752 26.732-146.71a454.3 454.3 0 0 0 54.274 65.697 455 455 0 0 0 65.705 54.273c-79.966 39.075-130.6 42.843-146.71 26.74m502.23-298.066C566.14 763.044 461.83 847.11 369.043 903.046a384 384 0 0 1-22.01-13.392 395.7 395.7 0 0 1-111.676-111.667 392 392 0 0 1-35.827-68.091 392 392 0 0 1-21.498-72.558 394.7 394.7 0 0 1 0-149.669 392 392 0 0 1 21.498-72.558 390.4 390.4 0 0 1 86.035-129.542 395.5 395.5 0 0 1 61.468-50.208 389.6 389.6 0 0 1 140.65-57.334 395.5 395.5 0 0 1 149.668 0 388.8 388.8 0 0 1 140.65 57.334 392 392 0 0 1 47.181 36.611 29.835 29.835 0 0 0 40.055-44.223 452 452 0 0 0-49.252-38.675c79.948-39.066 130.565-42.817 146.676-26.723 18.983 18.983 10.544 85.822-51.086 192.332-55.731 96.307-143.437 206.363-246.98 309.906"/>
</svg>
